<svg width="75" height="69" viewBox="0 0 75 69" fill="none" xmlns="http://www.w3.org/2000/svg">
<g id="Logo">
<g id="logo">
<mask id="mask0_571_25" style="mask-type:luminance" maskUnits="userSpaceOnUse" x="0" y="0" width="75" height="69">
<g id="52dbd7c555">
<path id="Vector" d="M0 0H75V68.4552H0V0Z" fill="white"/>
</g>
</mask>
<g mask="url(#mask0_571_25)">
<g id="Group">
<path id="Vector_2" d="M43.034 47.9944C41.7958 48.4891 40.5548 48.8622 39.0678 48.9866C30.0134 49.9788 22.4488 42.9089 22.4488 34.1032C22.4488 32.6163 22.6975 31.1293 23.0679 29.6396C23.3166 29.0205 24.0601 28.8961 24.4332 29.2665L32.8657 37.7018C33.4848 38.3209 34.4771 38.3209 35.2233 37.7018L41.1739 31.7484C41.7958 31.1293 41.7958 30.1371 41.1739 29.3908L32.7414 20.9583C32.371 20.4636 32.4926 19.7173 33.1145 19.5957C34.4771 19.2226 35.9668 18.9739 37.4537 18.9739C46.2594 18.9739 53.3293 26.5385 52.3371 35.5929C52.2127 36.9555 51.8396 38.1965 51.3449 39.5618L66.969 55.1859C71.8057 49.4813 74.658 42.1654 74.658 34.352C74.5336 15.1293 57.9173 0 37.3294 0C16.6198 0 0.125096 15.2537 0.125096 33.9816C0.125096 39.9322 1.86356 45.5124 4.59149 50.4735C5.08622 51.217 5.21059 52.2092 4.96184 53.0799L0.125096 66.3491C-0.369635 67.5873 0.871337 68.7039 2.10954 68.3336L15.6276 63.2481C16.371 62.875 17.3633 63.1237 18.2311 63.6184C23.8141 66.7195 30.5082 68.5796 37.7025 68.5796C45.1428 68.4552 52.0884 66.3491 57.9173 62.875L43.034 47.9944Z" fill="#5CE193"/>
</g>
</g>
</g>
</g>
</svg>
